# xmcd
#
# Track frame offsets: 
#        150
#        12527
#        23840
#        35397
#        47890
#        60210
#        72027
#        83177
#        94462
#        108060
#        120037
#        131877
#        144787
#        156677
#        171705
#        184227
#        196492
#        207622
#        219457
#        231777
#        243372
#        256037
#        267585
#        279077
#        292350
#        303952
#        317315
#        328410
#
# Disc length: 4559 seconds
#
# Revision: 1
# Processed by: cddbd v1.5.2PL0 Copyright (c) Steve Scherf et al.
# Submitted via: ExactAudioCopyFreeDBPlugin 1.0
#
DISCID=a111cd1c
DTITLE=Various Artist - A Shot in the Dark:  Nashville Jumps - Blues 
DTITLE=and Rhythm on Nashville Independent Labels, 1945-1955
DYEAR=2000
DGENRE=Rhythm and Blues
TTITLE0=Sherman Williams - Baby Don't You Want to Go
TTITLE1=Cecil Gant - Three Little Girls
TTITLE2=Cecil Gant - Another Day Another Dollar
TTITLE3=Sherman Williams - My Flamin' Gal (Red Head Blues)
TTITLE4=Sherman Williams - Baby Please Don't Go (Skippy's Blues)
TTITLE5=Smokey Hogg - Hard Times
TTITLE6=Cecil Gant - I'm a Good But a Poor Man
TTITLE7=Cecil Gant - Cecil's Jam Session
TTITLE8=The Red Miller Trio - Bewildered
TTITLE9=Cecil Gant - I Ain't Gonna Cry No More
TTITLE10=Sherman Williams - Ooh Wee Baby Gee
TTITLE11=Walter Davis - You've Gotta Reap What You Sow
TTITLE12=Walter Davis - Move Back to the Woods
TTITLE13=Max Blues Bailey - Delinquency Blues
TTITLE14=Max Blues Bailey - Sting-A-Ree
TTITLE15=B.B. King - Miss Martha King
TTITLE16=B.B. King - When Your Baby Packs Up and Goes
TTITLE17=Max Blues Bailey - Rocking the Blues
TTITLE18=Tuff Green - Let's Go to the Liquor Store
TTITLE19=Tuff Green - I Love My Baby
TTITLE20=B.B. King - Got the Blues
TTITLE21=B.B. King - Take a Swing with Me
TTITLE22=Roosevelt Sykes - Candy Man Blues
TTITLE23=Cecil Gant - What's the Matter
TTITLE24=Cecil Gant - You Can't Do Me Right
TTITLE25=Doc Wiley - Play Your Hand
TTITLE26=Mr. Swing with Bobby Plater's Orchestra - Gonna Bring My Baby
TTITLE26=Back
TTITLE27=Mr. Swing with Bobby Plater's Orchestra - Beer Bottle Boogie
EXTD=
EXTT0=
EXTT1=
EXTT2=
EXTT3=
EXTT4=
EXTT5=
EXTT6=
EXTT7=
EXTT8=
EXTT9=
EXTT10=
EXTT11=
EXTT12=
EXTT13=
EXTT14=
EXTT15=
EXTT16=
EXTT17=
EXTT18=
EXTT19=
EXTT20=
EXTT21=
EXTT22=
EXTT23=
EXTT24=
EXTT25=
EXTT26=
EXTT27=
PLAYORDER=
